# xmcd CD database file generated by OrangeCD 6.3
#
# Track frame offsets:
#	150
#	18490
#	42745
#	65807
#	73292
#	90837
#	107435
#	130827
#	148175
#	153745
#	174190
#	185765
#	208085
#	229205
#
# Disc length: 3526 seconds
#
# Revision: 1
# Processed by: cddbd v1.5.2PL0 Copyright (c) Steve Scherf et al.
# Submitted via: OrangeCD 6.3
#
DISCID=d10dc40e
DTITLE=Dr. Ross - The Flying Eagle
DYEAR=1997
DGENRE=Country Blues
TTITLE0=Flying Eagle Boogie
TTITLE1=Goin' Down Slow
TTITLE2=Something To Tell You, Want All My Friends To Know
TTITLE3=Tommy Dorsey Boogie
TTITLE4=Hobo Blues
TTITLE5=Mother, Before This Time Another Year
TTITLE6=Bad Whiskey, Bad Women
TTITLE7=Decoration Day
TTITLE8=Too Close Together
TTITLE9=Rollin' And Tumblin'
TTITLE10=Mean Old World
TTITLE11=Rock Me
TTITLE12=The Fox Chase
TTITLE13=Call The Doctor
EXTD=
EXTT0=
EXTT1=
EXTT2=
EXTT3=
EXTT4=
EXTT5=
EXTT6=
EXTT7=
EXTT8=
EXTT9=
EXTT10=
EXTT11=
EXTT12=
EXTT13=
PLAYORDER=
